<?xml version="1.0" encoding="UTF-8"?>
<svg width="68px" height="68px" viewBox="0 0 68 68" version="1.1" xmlns="http://www.w3.org/2000/svg" xmlns:xlink="http://www.w3.org/1999/xlink">
    <!-- Generator: Sketch 62 (91390) - https://sketch.com -->
    <title>编组</title>
    <desc>Created with Sketch.</desc>
    <g id="页面-1" stroke="none" stroke-width="1" fill="none" fill-rule="evenodd">
        <g id="iPhone-11-Pro备份-4" transform="translate(-153.000000, -160.000000)">
            <g id="编组" transform="translate(153.000000, 160.000000)">
                <circle id="椭圆形" fill="#E0550D" cx="34" cy="34" r="34"></circle>
                <g id="枫叶" transform="translate(34.500000, 34.000000) scale(-1, 1) translate(-34.500000, -34.000000) translate(13.000000, 14.000000)" fill="#FFFFFF" fill-rule="nonzero">
                    <path d="M39.8235616,28.8157857 C40.4520251,28.8923501 37.5000483,33.8949548 37.1568003,34.2994839 C35.8417671,35.8169662 34.1742568,37.6897313 31.9672514,37.5211713 C30.459072,37.4047373 29.4598948,36.1632413 28.5064938,35.1977318 C28.3747026,35.0597386 25.6834288,31.8626374 26.323927,31.9301205 C29.1164253,32.2273707 31.4614239,32.0220421 34.2048974,31.6664641 C31.6606244,31.6542079 28.3623725,32.0127392 26.3762005,29.9958528 C28.1110462,28.3713132 30.2597976,27.2525271 31.8751821,25.4899204 C33.3251814,23.9051765 34.226235,22.0261356 35.4676571,20.3156548 C34.226235,22.0261356 32.512727,23.4208343 30.7624503,24.5733619 C29.1531201,25.6247388 27.8259783,27.0716371 25.9192503,27.5374473 C24.9690241,27.764335 21.0423826,13.247065 20.1749228,11.6990898 C20.5918558,13.0447636 20.6899794,14.2984419 20.886005,15.6839114 C21.1741739,17.6947435 21.7443095,19.7148047 22.1520134,21.7104273 C22.6118431,23.9113046 23.1482373,26.1428224 23.773526,28.2916477 C23.8562923,28.5766417 18.4154171,27.08094 18.05061,26.9642106 C15.7976068,26.2133326 13.5722171,25.3948239 11.4877738,24.2575058 C14.2649149,27.6508542 20.2024624,30.1032055 24.536734,30.4954784 C22.001764,32.6503579 18.035179,32.8802728 14.8228682,32.9814235 C17.992356,33.7416783 22.3726992,33.7876022 25.3981395,32.7791221 C26.7774809,32.3161914 25.8762797,37.5916815 25.309245,38.1680191 C23.5804536,39.9151949 20.5487375,40.1880065 18.280451,39.7649454 C15.221343,39.1948097 9.04472545,35.7432074 8.18952192,32.478697 C9.77729295,31.8534084 11.4754438,31.3966796 13.0817468,30.7712433 C10.1911988,31.4580345 6.94189788,29.0118113 5.15795352,27.043876 C4.55104918,26.3757644 0.39441893,19.6013978 0.0235575544,19.678036 C3.15324954,19.0496464 6.94197172,18.0687797 10.1574572,18.4826855 C11.9414754,18.7124527 15.5369776,21.1065501 16.4810756,22.6391681 C11.6593609,14.8257546 15.4266716,7.45061171 18.9701217,0.0325720374 C25.2417619,4.46194007 31.1823365,11.6531659 28.2334607,19.972333 C30.6305114,13.1121728 36.1480987,11.4906602 42.1713659,9.421648 C43.0786953,16.4840358 41.4693651,24.8492745 35.5318177,29.5636365 C36.8963188,28.9751904 38.3461704,28.6348957 39.8235616,28.8157857 L39.8235616,28.8157857 Z" id="路径"></path>
                </g>
            </g>
        </g>
    </g>
</svg>